<svg
  width="24"
  height="24"
  viewBox="0 0 24 24"
  fill="none"
  stroke="#ffffff"
  stroke-width="2"
  stroke-linecap="round"
  stroke-linejoin="round"
  xmlns="http://www.w3.org/2000/svg"
>
  <path d="M9 19c-5 1.5-5-2.5-7-3"/>
  <path d="M16 22v-3.87a3.37 3.37 0 0 0-.94-2.61"/>
  <path d="M20.94 13c3.14-.35 6.44-1.54 6.44-7"/>
  <path d="M21.5 4.77A5.07 5.07 0 0 0 19.91 1"/>
  <path d="M19.91 1S18.73.65 16 2.48"/>
  <path d="M8 2.48a13.38 13.38 0 0 1 8 0"/>
  <path d="M8 2.48C6.27.65 5.09 1 5.09 1"/>
  <path d="M5.09 1A5.07 5.07 0 0 0 5 4.77"/>
  <path d="M5 4.77a5.44 5.44 0 0 0-1.5 3.78"/>
  <path d="M3.5 8.55c0 5.42 3.3 6.61 6.44 7"/>
  <path d="M9.94 15.55A3.37 3.37 0 0 0 9 18.13V22"/>
</svg>
